<svg id="SvgjsSvg1024" xmlns="http://www.w3.org/2000/svg" version="1.1" xmlns:xlink="http://www.w3.org/1999/xlink" xmlns:svgjs="http://svgjs.com/svgjs" width="12" height="20" viewBox="0 0 12 20"><title>Shape</title><desc>Created with Avocode.</desc><defs id="SvgjsDefs1025"></defs><path id="SvgjsPath1026" d="M141.82 88.02L140 88.02L140 93.19999999999999L141.82 93.19999999999999L141.82 102.98999999999998L147.64 102.98999999999998L147.64 93.19999999999999L150.14 93.19999999999999L150.14 88.54999999999998L151.13 83.88999999999999C149.21 83.08999999999999 147.26999999999998 82.99999999999999 147.26999999999998 82.99999999999999C141.26 82.99999999999999 141.82 88.01999999999998 141.82 88.01999999999998ZM146.66 86.97C145.98 87.31 146.19 89.5 146.19 89.5L148.66 89.5L148.66 91.72L146.19 91.72L146.19 101.55L143.27 101.55L143.27 91.72L141.45000000000002 91.72L141.45000000000002 89.5C141.45000000000002 89.5 143.29000000000002 89.5 143.3 89.5C143.13000000000002 89.5 143.39000000000001 87.33 143.41000000000003 87.13C143.51000000000002 86.03999999999999 144.32000000000002 85.08 145.35000000000002 84.72C146.77 84.23 148.06000000000003 84.5 149.46000000000004 84.85C149.34000000000003 85.49 149.21000000000004 86.13 149.09000000000003 86.75999999999999C149.09000000000003 86.75999999999999 147.12000000000003 86.41 146.66000000000003 86.96999999999998Z " fill="#000000" fill-opacity="1" transform="matrix(1,0,0,1,-140,-83)"></path></svg>