<svg id="SvgjsSvg1019" xmlns="http://www.w3.org/2000/svg" version="1.1" xmlns:xlink="http://www.w3.org/1999/xlink" xmlns:svgjs="http://svgjs.com/svgjs" width="20" height="20" viewBox="0 0 20 20"><title>Shape</title><desc>Created with Avocode.</desc><defs id="SvgjsDefs1020"></defs><path id="SvgjsPath1021" d="M105.56 83C102.49000000000001 83 100 85.49 100 88.53L100 97.33C100 100.37 102.49 102.86 105.53 102.86L114.35 102.86C117.39999999999999 102.86 119.88 100.37 119.88 97.33L119.88 88.53C119.88 85.49 117.39999999999999 83 114.35 83ZM114.35 101.23L105.56 101.23C103.4 101.23 101.65 99.47 101.65 97.33L101.65 88.53C101.65 86.37 103.42 84.63 105.56 84.63L114.35 84.63C116.50999999999999 84.63 118.25999999999999 86.39999999999999 118.25999999999999 88.53L118.25999999999999 97.33C118.25999999999999 99.49 116.49 101.23 114.35 101.23Z " fill="#ffffff" fill-opacity="1" transform="matrix(1,0,0,1,-100,-83)"></path><path id="SvgjsPath1022" d="M105 93.14C105 95.98 107.3 98.28 110.14 98.28C112.98 98.28 115.28 95.98 115.28 93.14C115.28 90.33 112.98 88 110.14 88C107.3 88 105 90.33 105 93.14ZM106.63 93.14C106.63 91.21 108.21 89.63 110.14 89.63C112.07000000000001 89.63 113.65 91.21 113.65 93.14C113.65 95.07000000000001 112.07000000000001 96.65 110.14 96.65C108.21 96.65 106.63 95.07000000000001 106.63 93.14Z " fill="#ffffff" fill-opacity="1" transform="matrix(1,0,0,1,-100,-83)"></path><path id="SvgjsPath1023" d="M114 87.5C114 86.67157 114.67157 86 115.5 86C116.32843 86 117 86.67157 117 87.5C117 88.32843 116.32843 89 115.5 89C114.67157 89 114 88.32843 114 87.5Z " fill="#ffffff" fill-opacity="1" transform="matrix(1,0,0,1,-100,-83)"></path></svg>