<svg id="SvgjsSvg1000" xmlns="http://www.w3.org/2000/svg" version="1.1" xmlns:xlink="http://www.w3.org/1999/xlink" xmlns:svgjs="http://svgjs.com/svgjs" width="148.5" height="66.46942938370047" viewBox="0 0 148.5 66.46942938370047"><title>Fill 1</title><desc>Created with Avocode.</desc><defs id="SvgjsDefs1001"></defs><path id="SvgjsPath1007" d="M262.77 50C261.76 50.08 260.78999999999996 50.16 259.82 50.28C259.58 50.32 259.34 50.32 259.14 50.36C259.65999999999997 51.21 259.97999999999996 52.18 259.97999999999996 53.23C259.97999999999996 56.169999999999995 257.60999999999996 58.55 254.69999999999996 58.55C251.79999999999995 58.55 249.41999999999996 56.169999999999995 249.41999999999996 53.23C249.41999999999996 52.94 249.45999999999995 52.66 249.49999999999997 52.379999999999995C247.72999999999996 52.94 246.06999999999996 53.55 244.61999999999998 54.23C243.64999999999998 54.68 242.80999999999997 55.16 241.99999999999997 55.65L241.99999999999997 73.31L270.75 80.32000000000001L270.75 62.38000000000001ZM268.09 77.02L244.61999999999998 71.28999999999999L244.61999999999998 65.97L268.09 71.82ZM268.09 69.11L244.61999999999998 63.269999999999996L244.61999999999998 57.98L268.09 63.83Z " fill="#8e58a2" fill-opacity="1" transform="matrix(1,0,0,1,-241.5,-38.53057061629953)"></path><path id="SvgjsPath1008" d="M259.82 50.28C259.58 50.32 259.34 50.32 259.14 50.36C259.65999999999997 51.21 259.97999999999996 52.18 259.97999999999996 53.23C259.97999999999996 56.169999999999995 257.60999999999996 58.55 254.69999999999996 58.55C251.79999999999995 58.55 249.41999999999996 56.169999999999995 249.41999999999996 53.23C249.41999999999996 52.94 249.45999999999995 52.66 249.49999999999997 52.379999999999995C247.72999999999996 52.94 246.06999999999996 53.55 244.61999999999998 54.23C243.64999999999998 54.68 242.80999999999997 55.16 241.99999999999997 55.65L241.99999999999997 73.31L270.75 80.32000000000001L270.75 62.38000000000001L262.77 50.00000000000001C261.76 50.080000000000005 260.78999999999996 50.160000000000004 259.82 50.28000000000001ZM244.62 71.29L244.62 65.97L268.09000000000003 71.82L268.09000000000003 77.02ZM244.62 63.27L244.62 57.980000000000004L268.09000000000003 63.830000000000005L268.09000000000003 69.11Z " fill-opacity="0" fill="#ffffff" stroke-dasharray="0" stroke-linejoin="miter" stroke-linecap="butt" stroke-opacity="1" stroke="#fefefe" stroke-miterlimit="50" stroke-width="1" transform="matrix(1,0,0,1,-241.5,-38.53057061629953)"></path><path id="SvgjsPath1009" d="M258.7 41.88C258.9 41.720000000000006 259.15 41.59 259.39 41.510000000000005C259.78999999999996 41.31 259.95 40.870000000000005 259.78999999999996 40.470000000000006C259.62999999999994 40.06000000000001 259.10999999999996 39.900000000000006 258.73999999999995 40.06000000000001C256.53 41.07000000000001 255.06999999999996 43.13000000000001 254.46999999999994 46.03000000000001C254.22999999999993 47.32000000000001 254.18999999999994 48.49000000000001 254.22999999999993 49.220000000000006C252.85999999999993 49.50000000000001 251.76999999999992 50.470000000000006 251.23999999999992 51.800000000000004C251.07999999999993 52.24 250.99999999999991 52.720000000000006 250.99999999999991 53.25000000000001C250.99999999999991 55.510000000000005 252.8199999999999 57.36000000000001 255.0699999999999 57.36000000000001C257.3299999999999 57.36000000000001 259.1499999999999 55.510000000000005 259.1499999999999 53.25000000000001C259.1499999999999 52.20000000000001 258.7399999999999 51.190000000000005 258.0199999999999 50.43000000000001C257.4099999999999 49.82000000000001 256.68999999999994 49.38000000000001 255.83999999999992 49.220000000000006C255.79999999999993 48.050000000000004 255.8799999999999 45.67000000000001 257.00999999999993 43.77C257.68999999999994 45.14 259.06999999999994 46.07 260.63999999999993 46.07L261.0399999999999 46.07L261.0399999999999 45.67C261.0399999999999 43.97 260.1099999999999 42.52 258.69999999999993 41.88 " fill="#8e58a2" fill-opacity="1" transform="matrix(1,0,0,1,-241.5,-38.53057061629953)"></path><path id="SvgjsPath1010" d="M258.7 41.88C258.9 41.720000000000006 259.15 41.59 259.39 41.510000000000005C259.78999999999996 41.31 259.95 40.870000000000005 259.78999999999996 40.470000000000006C259.62999999999994 40.06000000000001 259.10999999999996 39.900000000000006 258.73999999999995 40.06000000000001C256.53 41.07000000000001 255.06999999999996 43.13000000000001 254.46999999999994 46.03000000000001C254.22999999999993 47.32000000000001 254.18999999999994 48.49000000000001 254.22999999999993 49.220000000000006C252.85999999999993 49.50000000000001 251.76999999999992 50.470000000000006 251.23999999999992 51.800000000000004C251.07999999999993 52.24 250.99999999999991 52.720000000000006 250.99999999999991 53.25000000000001C250.99999999999991 55.510000000000005 252.8199999999999 57.36000000000001 255.0699999999999 57.36000000000001C257.3299999999999 57.36000000000001 259.1499999999999 55.510000000000005 259.1499999999999 53.25000000000001C259.1499999999999 52.20000000000001 258.7399999999999 51.190000000000005 258.0199999999999 50.43000000000001C257.4099999999999 49.82000000000001 256.68999999999994 49.38000000000001 255.83999999999992 49.220000000000006C255.79999999999993 48.050000000000004 255.8799999999999 45.67000000000001 257.00999999999993 43.77C257.68999999999994 45.14 259.06999999999994 46.07 260.63999999999993 46.07L261.0399999999999 46.07L261.0399999999999 45.67C261.0399999999999 43.97 260.1099999999999 42.52 258.69999999999993 41.88 " fill-opacity="0" fill="#ffffff" stroke-dasharray="0" stroke-linejoin="miter" stroke-linecap="butt" stroke-opacity="1" stroke="#fefefe" stroke-miterlimit="50" stroke-width="1" transform="matrix(1,0,0,1,-241.5,-38.53057061629953)"></path><path id="SvgjsPath1011" d="M385.88 90.16C384.44 88.28999999999999 382.5 88 381.38 88C377.38 88 374 91.02 374 95.96C374 100.13 376.66 104.02 381.34 104.02C382.41999999999996 104.02 384.33 103.77 385.88 101.97L385.88 103.55L389.40999999999997 103.55L389.40999999999997 88.39999999999999L385.88 88.39999999999999ZM386.1 96.06C386.1 99.23 384.04 100.85000000000001 381.81 100.85000000000001C379.26 100.85000000000001 377.6 98.66000000000001 377.6 96.03C377.6 93.33 379.26000000000005 91.17 381.81 91.17C384.04 91.17 386.1 92.75 386.1 96.06Z " fill="#000000" fill-opacity="1" transform="matrix(1,0,0,1,-241.5,-38.53057061629953)"></path><path id="SvgjsPath1012" d="M360 89L360 104.16L363.53 104.16L363.53 98.5L364.09999999999997 97.93L369.14 104.16000000000001L373.61 104.16000000000001L366.62 95.62L373.25 89L368.57 89L363.53 94.4L363.53 89Z " fill="#000000" fill-opacity="1" transform="matrix(1,0,0,1,-241.5,-38.53057061629953)"></path><path id="SvgjsPath1013" d="M352.88 90.16C351.44 88.28999999999999 349.5 88 348.38 88C344.38 88 341 91.02 341 95.96C341 100.13 343.66 104.02 348.34 104.02C349.41999999999996 104.02 351.33 103.77 352.88 101.97L352.88 103.55L356.40999999999997 103.55L356.40999999999997 88.39999999999999L352.88 88.39999999999999ZM353.1 96.06C353.1 99.23 351.04 100.85000000000001 348.81 100.85000000000001C346.26 100.85000000000001 344.6 98.66000000000001 344.6 96.03C344.6 93.33 346.26000000000005 91.17 348.81 91.17C351.04 91.17 353.1 92.75 353.1 96.06Z " fill="#000000" fill-opacity="1" transform="matrix(1,0,0,1,-241.5,-38.53057061629953)"></path><path id="SvgjsPath1014" d="M338.4 89L327.02 89L327.02 98.25C327.02 98.83 326.95 99.66 326.47999999999996 100.23C326.02 100.77000000000001 325.03999999999996 101.17 323.99999999999994 100.92L323.99999999999994 104.16C325.61999999999995 104.41 327.59999999999997 104.11999999999999 328.96999999999997 102.61C330.22999999999996 101.24 330.40999999999997 99.55 330.40999999999997 98.25L330.40999999999997 92.24L334.86999999999995 92.24L334.86999999999995 104.16L338.3999999999999 104.16Z " fill="#000000" fill-opacity="1" transform="matrix(1,0,0,1,-241.5,-38.53057061629953)"></path><path id="SvgjsPath1015" d="M307 95.99C307 100.64 310.53 104.02 315.1 104.02C319.67 104.02 323.20000000000005 100.64 323.20000000000005 95.99C323.20000000000005 91.31 319.6700000000001 88 315.1 88C310.53000000000003 88 307 91.31 307 95.99ZM310.6 96.03C310.6 92.57000000000001 312.87 91.17 315.1 91.17C317.33000000000004 91.17 319.6 92.57000000000001 319.6 96.03C319.6 98.94 317.87 100.85 315.1 100.85C312.33000000000004 100.85 310.6 98.94 310.6 96.03Z " fill="#000000" fill-opacity="1" transform="matrix(1,0,0,1,-241.5,-38.53057061629953)"></path><path id="SvgjsPath1016" d="M274 95.99C274 100.64 277.53 104.02 282.1 104.02C286.67 104.02 290.20000000000005 100.64 290.20000000000005 95.99C290.20000000000005 91.31 286.6700000000001 88 282.1 88C277.53000000000003 88 274 91.31 274 95.99ZM277.6 96.03C277.6 92.57000000000001 279.87 91.17 282.1 91.17C284.33000000000004 91.17 286.6 92.57000000000001 286.6 96.03C286.6 98.94 284.87 100.85 282.1 100.85C279.33000000000004 100.85 277.6 98.94 277.6 96.03Z " fill="#000000" fill-opacity="1" transform="matrix(1,0,0,1,-241.5,-38.53057061629953)"></path><path id="SvgjsPath1017" d="M293 89L293 104.16L296.53 104.16L296.53 98.5L297.09999999999997 97.93L302.14 104.16000000000001L306.61 104.16000000000001L299.62 95.62L306.25 89L301.57 89L296.53 94.4L296.53 89Z " fill="#000000" fill-opacity="1" transform="matrix(1,0,0,1,-241.5,-38.53057061629953)"></path><path id="SvgjsPath1018" d="M243 103.55L271.01 103.55L271.01 88.1544L267.34 87.34783L267.34 100.08999L258.84 100.08999L258.84 85.47976L255.17 84.67319L255.17 100.08999L246.67 100.08999L246.67 82.80513L243 81.99856000000001Z " fill="#000000" fill-opacity="1" transform="matrix(1,0,0,1,-241.5,-38.53057061629953)"></path></svg>